<mxfile host="app.diagrams.net" modified="2023-11-15T13:40:18.067Z" agent="Mozilla/5.0 (Windows NT 10.0; Win64; x64) AppleWebKit/537.36 (KHTML, like Gecko) Chrome/116.0.5845.837 YaBrowser/23.9.4.837 Yowser/2.5 Safari/537.36" etag="2e13iPQim8ww2HFlUbuE" version="22.1.1" type="device">
  <diagram name="Страница — 1" id="eyKU1jFnLrWmM6EbDm5r">
    <mxGraphModel dx="1002" dy="575" grid="1" gridSize="10" guides="1" tooltips="1" connect="1" arrows="1" fold="1" page="1" pageScale="1" pageWidth="827" pageHeight="1169" math="0" shadow="0">
      <root>
        <mxCell id="0" />
        <mxCell id="1" parent="0" />
        <mxCell id="1BLPeJ7yjwuouqU2yvvx-4" value="клиент" style="rounded=1;whiteSpace=wrap;html=1;" vertex="1" parent="1">
          <mxGeometry x="40" y="30" width="120" height="60" as="geometry" />
        </mxCell>
        <mxCell id="1BLPeJ7yjwuouqU2yvvx-5" value="сотрудник отдела кредитования" style="rounded=1;whiteSpace=wrap;html=1;" vertex="1" parent="1">
          <mxGeometry x="360" y="30" width="120" height="60" as="geometry" />
        </mxCell>
        <mxCell id="1BLPeJ7yjwuouqU2yvvx-6" value="инспектор по кредитам" style="rounded=1;whiteSpace=wrap;html=1;" vertex="1" parent="1">
          <mxGeometry x="680" y="30" width="120" height="60" as="geometry" />
        </mxCell>
        <mxCell id="1BLPeJ7yjwuouqU2yvvx-7" value="" style="html=1;points=[[0,0,0,0,5],[0,1,0,0,-5],[1,0,0,0,5],[1,1,0,0,-5]];perimeter=orthogonalPerimeter;outlineConnect=0;targetShapes=umlLifeline;portConstraint=eastwest;newEdgeStyle={&quot;curved&quot;:0,&quot;rounded&quot;:0};" vertex="1" parent="1">
          <mxGeometry x="95" y="120" width="10" height="80" as="geometry" />
        </mxCell>
        <mxCell id="1BLPeJ7yjwuouqU2yvvx-8" value="" style="html=1;points=[[0,0,0,0,5],[0,1,0,0,-5],[1,0,0,0,5],[1,1,0,0,-5]];perimeter=orthogonalPerimeter;outlineConnect=0;targetShapes=umlLifeline;portConstraint=eastwest;newEdgeStyle={&quot;curved&quot;:0,&quot;rounded&quot;:0};" vertex="1" parent="1">
          <mxGeometry x="100" y="160" width="10" height="40" as="geometry" />
        </mxCell>
        <mxCell id="1BLPeJ7yjwuouqU2yvvx-9" value="подготовка пакета документов" style="html=1;align=left;spacingLeft=2;endArrow=block;rounded=0;edgeStyle=orthogonalEdgeStyle;curved=0;rounded=0;" edge="1" target="1BLPeJ7yjwuouqU2yvvx-8" parent="1">
          <mxGeometry relative="1" as="geometry">
            <mxPoint x="105" y="140" as="sourcePoint" />
            <Array as="points">
              <mxPoint x="135" y="170" />
            </Array>
          </mxGeometry>
        </mxCell>
        <mxCell id="1BLPeJ7yjwuouqU2yvvx-10" value="" style="endArrow=none;dashed=1;html=1;rounded=0;entryX=0.5;entryY=1;entryDx=0;entryDy=0;" edge="1" parent="1" source="1BLPeJ7yjwuouqU2yvvx-7" target="1BLPeJ7yjwuouqU2yvvx-4">
          <mxGeometry width="50" height="50" relative="1" as="geometry">
            <mxPoint x="110" y="110" as="sourcePoint" />
            <mxPoint x="150" y="90" as="targetPoint" />
          </mxGeometry>
        </mxCell>
        <mxCell id="1BLPeJ7yjwuouqU2yvvx-11" value="" style="endArrow=none;dashed=1;html=1;rounded=0;entryX=0.5;entryY=1;entryDx=0;entryDy=0;" edge="1" parent="1" source="1BLPeJ7yjwuouqU2yvvx-15" target="1BLPeJ7yjwuouqU2yvvx-5">
          <mxGeometry width="50" height="50" relative="1" as="geometry">
            <mxPoint x="420" y="180" as="sourcePoint" />
            <mxPoint x="420" y="90" as="targetPoint" />
          </mxGeometry>
        </mxCell>
        <mxCell id="1BLPeJ7yjwuouqU2yvvx-12" value="" style="endArrow=none;dashed=1;html=1;rounded=0;entryX=0.5;entryY=1;entryDx=0;entryDy=0;" edge="1" parent="1" source="1BLPeJ7yjwuouqU2yvvx-25" target="1BLPeJ7yjwuouqU2yvvx-6">
          <mxGeometry width="50" height="50" relative="1" as="geometry">
            <mxPoint x="740" y="190" as="sourcePoint" />
            <mxPoint x="680" y="180" as="targetPoint" />
          </mxGeometry>
        </mxCell>
        <mxCell id="1BLPeJ7yjwuouqU2yvvx-13" value="" style="html=1;points=[[0,0,0,0,5],[0,1,0,0,-5],[1,0,0,0,5],[1,1,0,0,-5]];perimeter=orthogonalPerimeter;outlineConnect=0;targetShapes=umlLifeline;portConstraint=eastwest;newEdgeStyle={&quot;curved&quot;:0,&quot;rounded&quot;:0};" vertex="1" parent="1">
          <mxGeometry x="95" y="220" width="10" height="80" as="geometry" />
        </mxCell>
        <mxCell id="1BLPeJ7yjwuouqU2yvvx-15" value="" style="html=1;points=[[0,0,0,0,5],[0,1,0,0,-5],[1,0,0,0,5],[1,1,0,0,-5]];perimeter=orthogonalPerimeter;outlineConnect=0;targetShapes=umlLifeline;portConstraint=eastwest;newEdgeStyle={&quot;curved&quot;:0,&quot;rounded&quot;:0};" vertex="1" parent="1">
          <mxGeometry x="415" y="220" width="10" height="360" as="geometry" />
        </mxCell>
        <mxCell id="1BLPeJ7yjwuouqU2yvvx-16" value="передача пакета документов" style="html=1;verticalAlign=bottom;endArrow=block;curved=0;rounded=0;entryX=0;entryY=0;entryDx=0;entryDy=5;exitX=1;exitY=0;exitDx=0;exitDy=5;exitPerimeter=0;" edge="1" target="1BLPeJ7yjwuouqU2yvvx-15" parent="1" source="1BLPeJ7yjwuouqU2yvvx-13">
          <mxGeometry relative="1" as="geometry">
            <mxPoint x="345" y="225" as="sourcePoint" />
          </mxGeometry>
        </mxCell>
        <mxCell id="1BLPeJ7yjwuouqU2yvvx-18" value="" style="endArrow=none;dashed=1;html=1;rounded=0;entryX=0;entryY=1;entryDx=0;entryDy=-5;entryPerimeter=0;" edge="1" parent="1" source="1BLPeJ7yjwuouqU2yvvx-13" target="1BLPeJ7yjwuouqU2yvvx-8">
          <mxGeometry width="50" height="50" relative="1" as="geometry">
            <mxPoint x="310" y="430" as="sourcePoint" />
            <mxPoint x="360" y="380" as="targetPoint" />
          </mxGeometry>
        </mxCell>
        <mxCell id="1BLPeJ7yjwuouqU2yvvx-19" value="" style="html=1;points=[[0,0,0,0,5],[0,1,0,0,-5],[1,0,0,0,5],[1,1,0,0,-5]];perimeter=orthogonalPerimeter;outlineConnect=0;targetShapes=umlLifeline;portConstraint=eastwest;newEdgeStyle={&quot;curved&quot;:0,&quot;rounded&quot;:0};" vertex="1" parent="1">
          <mxGeometry x="420" y="260" width="10" height="40" as="geometry" />
        </mxCell>
        <mxCell id="1BLPeJ7yjwuouqU2yvvx-20" value="проверка наличия всех документов" style="html=1;align=left;spacingLeft=2;endArrow=block;rounded=0;edgeStyle=orthogonalEdgeStyle;curved=0;rounded=0;" edge="1" target="1BLPeJ7yjwuouqU2yvvx-19" parent="1">
          <mxGeometry relative="1" as="geometry">
            <mxPoint x="425" y="240" as="sourcePoint" />
            <Array as="points">
              <mxPoint x="455" y="270" />
            </Array>
          </mxGeometry>
        </mxCell>
        <mxCell id="1BLPeJ7yjwuouqU2yvvx-21" value="" style="html=1;points=[[0,0,0,0,5],[0,1,0,0,-5],[1,0,0,0,5],[1,1,0,0,-5]];perimeter=orthogonalPerimeter;outlineConnect=0;targetShapes=umlLifeline;portConstraint=eastwest;newEdgeStyle={&quot;curved&quot;:0,&quot;rounded&quot;:0};" vertex="1" parent="1">
          <mxGeometry x="420" y="340" width="10" height="40" as="geometry" />
        </mxCell>
        <mxCell id="1BLPeJ7yjwuouqU2yvvx-22" value="проверить информацию о клиенте и его счетах" style="html=1;align=left;spacingLeft=2;endArrow=block;rounded=0;edgeStyle=orthogonalEdgeStyle;curved=0;rounded=0;" edge="1" target="1BLPeJ7yjwuouqU2yvvx-21" parent="1">
          <mxGeometry relative="1" as="geometry">
            <mxPoint x="425" y="320" as="sourcePoint" />
            <Array as="points">
              <mxPoint x="455" y="350" />
            </Array>
          </mxGeometry>
        </mxCell>
        <mxCell id="1BLPeJ7yjwuouqU2yvvx-23" value="" style="html=1;points=[[0,0,0,0,5],[0,1,0,0,-5],[1,0,0,0,5],[1,1,0,0,-5]];perimeter=orthogonalPerimeter;outlineConnect=0;targetShapes=umlLifeline;portConstraint=eastwest;newEdgeStyle={&quot;curved&quot;:0,&quot;rounded&quot;:0};" vertex="1" parent="1">
          <mxGeometry x="420" y="420" width="10" height="40" as="geometry" />
        </mxCell>
        <mxCell id="1BLPeJ7yjwuouqU2yvvx-24" value="подготовка кредитного запроса" style="html=1;align=left;spacingLeft=2;endArrow=block;rounded=0;edgeStyle=orthogonalEdgeStyle;curved=0;rounded=0;" edge="1" target="1BLPeJ7yjwuouqU2yvvx-23" parent="1">
          <mxGeometry relative="1" as="geometry">
            <mxPoint x="425" y="400" as="sourcePoint" />
            <Array as="points">
              <mxPoint x="455" y="430" />
            </Array>
          </mxGeometry>
        </mxCell>
        <mxCell id="1BLPeJ7yjwuouqU2yvvx-25" value="" style="html=1;points=[[0,0,0,0,5],[0,1,0,0,-5],[1,0,0,0,5],[1,1,0,0,-5]];perimeter=orthogonalPerimeter;outlineConnect=0;targetShapes=umlLifeline;portConstraint=eastwest;newEdgeStyle={&quot;curved&quot;:0,&quot;rounded&quot;:0};" vertex="1" parent="1">
          <mxGeometry x="735" y="470" width="10" height="80" as="geometry" />
        </mxCell>
        <mxCell id="1BLPeJ7yjwuouqU2yvvx-26" value="отправка кредитного запроса" style="html=1;verticalAlign=bottom;endArrow=block;curved=0;rounded=0;entryX=0;entryY=0;entryDx=0;entryDy=5;" edge="1" target="1BLPeJ7yjwuouqU2yvvx-25" parent="1" source="1BLPeJ7yjwuouqU2yvvx-15">
          <mxGeometry relative="1" as="geometry">
            <mxPoint x="665" y="475" as="sourcePoint" />
          </mxGeometry>
        </mxCell>
        <mxCell id="1BLPeJ7yjwuouqU2yvvx-27" value="одобрение кредитного запроса" style="html=1;verticalAlign=bottom;endArrow=open;dashed=1;endSize=8;curved=0;rounded=0;exitX=0;exitY=1;exitDx=0;exitDy=-5;" edge="1" source="1BLPeJ7yjwuouqU2yvvx-25" parent="1" target="1BLPeJ7yjwuouqU2yvvx-15">
          <mxGeometry relative="1" as="geometry">
            <mxPoint x="665" y="545" as="targetPoint" />
          </mxGeometry>
        </mxCell>
        <mxCell id="1BLPeJ7yjwuouqU2yvvx-28" value="подтверждение наличия предоставленных документов" style="html=1;verticalAlign=bottom;endArrow=open;dashed=1;endSize=8;curved=0;rounded=0;entryX=1;entryY=1;entryDx=0;entryDy=-5;entryPerimeter=0;" edge="1" parent="1" source="1BLPeJ7yjwuouqU2yvvx-15" target="1BLPeJ7yjwuouqU2yvvx-13">
          <mxGeometry relative="1" as="geometry">
            <mxPoint x="410" y="295" as="sourcePoint" />
            <mxPoint x="330" y="300" as="targetPoint" />
          </mxGeometry>
        </mxCell>
        <mxCell id="1BLPeJ7yjwuouqU2yvvx-29" value="" style="html=1;points=[[0,0,0,0,5],[0,1,0,0,-5],[1,0,0,0,5],[1,1,0,0,-5]];perimeter=orthogonalPerimeter;outlineConnect=0;targetShapes=umlLifeline;portConstraint=eastwest;newEdgeStyle={&quot;curved&quot;:0,&quot;rounded&quot;:0};" vertex="1" parent="1">
          <mxGeometry x="740" y="510" width="10" height="40" as="geometry" />
        </mxCell>
        <mxCell id="1BLPeJ7yjwuouqU2yvvx-30" value="рассмотрение запроса" style="html=1;align=left;spacingLeft=2;endArrow=block;rounded=0;edgeStyle=orthogonalEdgeStyle;curved=0;rounded=0;" edge="1" target="1BLPeJ7yjwuouqU2yvvx-29" parent="1">
          <mxGeometry relative="1" as="geometry">
            <mxPoint x="745" y="490" as="sourcePoint" />
            <Array as="points">
              <mxPoint x="775" y="520" />
            </Array>
          </mxGeometry>
        </mxCell>
        <mxCell id="1BLPeJ7yjwuouqU2yvvx-31" value="" style="endArrow=none;dashed=1;html=1;rounded=0;" edge="1" parent="1" target="1BLPeJ7yjwuouqU2yvvx-32">
          <mxGeometry width="50" height="50" relative="1" as="geometry">
            <mxPoint x="100" y="300" as="sourcePoint" />
            <mxPoint x="105" y="380" as="targetPoint" />
          </mxGeometry>
        </mxCell>
        <mxCell id="1BLPeJ7yjwuouqU2yvvx-32" value="" style="html=1;points=[[0,0,0,0,5],[0,1,0,0,-5],[1,0,0,0,5],[1,1,0,0,-5]];perimeter=orthogonalPerimeter;outlineConnect=0;targetShapes=umlLifeline;portConstraint=eastwest;newEdgeStyle={&quot;curved&quot;:0,&quot;rounded&quot;:0};" vertex="1" parent="1">
          <mxGeometry x="95" y="500" width="10" height="80" as="geometry" />
        </mxCell>
        <mxCell id="1BLPeJ7yjwuouqU2yvvx-33" value="уведомить об одобрении кредита" style="html=1;verticalAlign=bottom;endArrow=open;dashed=1;endSize=8;curved=0;rounded=0;" edge="1" parent="1" target="1BLPeJ7yjwuouqU2yvvx-32">
          <mxGeometry relative="1" as="geometry">
            <mxPoint x="414" y="570" as="sourcePoint" />
            <mxPoint x="334" y="570" as="targetPoint" />
          </mxGeometry>
        </mxCell>
        <mxCell id="1BLPeJ7yjwuouqU2yvvx-34" value="" style="endArrow=none;dashed=1;html=1;rounded=0;" edge="1" parent="1">
          <mxGeometry width="50" height="50" relative="1" as="geometry">
            <mxPoint x="100" y="630" as="sourcePoint" />
            <mxPoint x="100" y="580" as="targetPoint" />
          </mxGeometry>
        </mxCell>
        <mxCell id="1BLPeJ7yjwuouqU2yvvx-35" value="" style="endArrow=none;dashed=1;html=1;rounded=0;" edge="1" parent="1">
          <mxGeometry width="50" height="50" relative="1" as="geometry">
            <mxPoint x="420" y="630" as="sourcePoint" />
            <mxPoint x="420" y="580" as="targetPoint" />
          </mxGeometry>
        </mxCell>
        <mxCell id="1BLPeJ7yjwuouqU2yvvx-36" value="" style="endArrow=none;dashed=1;html=1;rounded=0;" edge="1" parent="1">
          <mxGeometry width="50" height="50" relative="1" as="geometry">
            <mxPoint x="740" y="630" as="sourcePoint" />
            <mxPoint x="740" y="550" as="targetPoint" />
          </mxGeometry>
        </mxCell>
      </root>
    </mxGraphModel>
  </diagram>
</mxfile>
